# xmcd
#
# Track frame offsets:
# 150
# 15782
# 28937
# 44097
# 60792
# 77970
# 96247
# 110652
# 125417
# 141182
# 157667
# 174262
# 191527
# 208200
#
# Disc length: 2998 seconds
#
#
# Revision: 0
# Processed by: cddbd v1.5.2PL0 Copyright (c) Steve Scherf et al.
# Submitted via: FreeRIP 2.951 
#
DISCID=b50bb40e
DTITLE=Mayck and Lyan - Defendendo a Tradição
DYEAR=1900
DGENRE=Sertanejo
TTITLE0=Pra não te perder
TTITLE1=Viola na cachola
TTITLE2=Prisioneiro
TTITLE3=Em tempo de avanço/Na barba do leão
TTITLE4=A correnteza
TTITLE5=Defendendo a tradição
TTITLE6=Meu erro
TTITLE7=Armadilha
TTITLE8=Modão de cabra macho
TTITLE9=Segundo sol
TTITLE10=O preço da gloria
TTITLE11=Deixe a poeira voar
TTITLE12=Caboclo sertanejo
TTITLE13=Querida (Don´t let them move)
EXTD=
EXTT0=
EXTT1=
EXTT2=
EXTT3=
EXTT4=
EXTT5=
EXTT6=
EXTT7=
EXTT8=
EXTT9=
EXTT10=
EXTT11=
EXTT12=
EXTT13=
PLAYORDER=
